<?xml version="1.0" encoding="UTF-8"?>
<svg xmlns="http://www.w3.org/2000/svg" xmlns:xlink="http://www.w3.org/1999/xlink" width="298px" height="52px" viewBox="0 0 297 52" version="1.1">
<g id="surface1">
<path style=" stroke:none;fill-rule:nonzero;fill:rgb(100%,100%,100%);fill-opacity:1;" d="M 2.882812 10.660156 C 2.882812 4.773438 7.648438 0 13.523438 0 L 43.316406 0 C 49.191406 0 53.957031 4.773438 53.957031 10.660156 L 53.957031 40.507812 C 53.957031 46.394531 49.191406 51.167969 43.316406 51.167969 L 13.523438 51.167969 C 7.648438 51.167969 2.882812 46.394531 2.882812 40.507812 Z M 2.882812 10.660156 "/>
<path style=" stroke:none;fill-rule:nonzero;fill:rgb(100%,34.117648%,13.333334%);fill-opacity:1;" d="M 13.097656 0 C 7.457031 0 2.882812 4.582031 2.882812 10.234375 L 2.882812 14.070312 L 15.421875 14.070312 C 16.65625 14.070312 17.753906 14.863281 18.148438 16.039062 L 23.875 33.257812 L 32.964844 33.257812 L 38.691406 16.039062 C 39.082031 14.863281 40.179688 14.070312 41.417969 14.070312 L 53.957031 14.070312 L 53.957031 10.234375 C 53.957031 4.582031 49.382812 0 43.742188 0 Z M 13.097656 0 "/>
<path style=" stroke:none;fill-rule:nonzero;fill:rgb(100%,34.117648%,13.333334%);fill-opacity:1;" d="M 53.957031 19.1875 L 43.027344 19.1875 L 37.300781 36.40625 C 36.90625 37.582031 35.808594 38.375 34.574219 38.375 L 22.265625 38.375 C 21.027344 38.375 19.929688 37.582031 19.539062 36.40625 L 13.8125 19.1875 L 2.882812 19.1875 L 2.882812 40.933594 C 2.882812 46.585938 7.457031 51.167969 13.097656 51.167969 L 43.742188 51.167969 C 49.382812 51.167969 53.957031 46.585938 53.957031 40.933594 Z M 53.957031 19.1875 "/>
<path style=" stroke:none;fill-rule:nonzero;fill:rgb(32.156864%,36.862746%,44.705883%);fill-opacity:1;" d="M 77.289062 46.902344 C 76.480469 46.902344 75.617188 46.875 74.691406 46.8125 C 73.796875 46.78125 72.871094 46.722656 71.917969 46.628906 C 70.992188 46.507812 70.109375 46.402344 69.273438 46.3125 C 68.441406 46.191406 67.695312 46.054688 67.035156 45.902344 L 67.035156 41.492188 C 67.871094 41.550781 68.84375 41.613281 69.945312 41.671875 C 71.082031 41.734375 72.257812 41.78125 73.484375 41.808594 C 74.707031 41.839844 75.886719 41.855469 77.019531 41.855469 C 78.210938 41.855469 79.273438 41.75 80.195312 41.535156 C 81.121094 41.292969 81.839844 40.886719 82.34375 40.308594 C 82.851562 39.734375 83.105469 38.914062 83.105469 37.851562 L 83.105469 36.261719 C 83.105469 35.078125 82.777344 34.167969 82.121094 33.53125 C 81.464844 32.894531 80.496094 32.578125 79.210938 32.578125 L 76.125 32.578125 C 73.109375 32.578125 70.78125 31.910156 69.140625 30.574219 C 67.53125 29.242188 66.722656 26.953125 66.722656 23.707031 L 66.722656 21.980469 C 66.722656 18.734375 67.605469 16.398438 69.363281 14.976562 C 71.15625 13.519531 73.707031 12.792969 77.019531 12.792969 C 78.152344 12.792969 79.316406 12.851562 80.511719 12.972656 C 81.734375 13.066406 82.898438 13.1875 84 13.335938 C 85.105469 13.488281 86.046875 13.65625 86.820312 13.839844 L 86.820312 18.25 C 85.507812 18.160156 84 18.066406 82.300781 17.976562 C 80.628906 17.886719 79.078125 17.839844 77.644531 17.839844 C 76.511719 17.839844 75.511719 17.960938 74.644531 18.203125 C 73.78125 18.445312 73.125 18.886719 72.675781 19.523438 C 72.230469 20.128906 72.003906 21.039062 72.003906 22.253906 L 72.003906 23.34375 C 72.003906 24.769531 72.378906 25.769531 73.125 26.34375 C 73.902344 26.921875 75.003906 27.210938 76.4375 27.210938 L 79.882812 27.210938 C 81.824219 27.210938 83.417969 27.574219 84.671875 28.300781 C 85.925781 29.027344 86.851562 30.03125 87.449219 31.304688 C 88.074219 32.546875 88.386719 33.972656 88.386719 35.578125 L 88.386719 37.714844 C 88.386719 40.203125 87.910156 42.113281 86.957031 43.445312 C 86 44.78125 84.6875 45.691406 83.015625 46.175781 C 81.347656 46.660156 79.4375 46.902344 77.289062 46.902344 Z M 77.289062 46.902344 "/>
<path style=" stroke:none;fill-rule:nonzero;fill:rgb(32.156864%,36.862746%,44.705883%);fill-opacity:1;" d="M 101.367188 46.859375 C 100.652344 46.859375 99.84375 46.78125 98.949219 46.628906 C 98.085938 46.507812 97.25 46.222656 96.445312 45.765625 C 95.636719 45.28125 94.980469 44.570312 94.472656 43.628906 C 93.964844 42.6875 93.714844 41.398438 93.714844 39.761719 L 93.714844 20.386719 C 93.714844 18.960938 93.921875 17.78125 94.339844 16.839844 C 94.757812 15.871094 95.308594 15.113281 95.996094 14.566406 C 96.710938 14.019531 97.488281 13.640625 98.324219 13.429688 C 99.1875 13.1875 100.039062 13.066406 100.875 13.066406 C 102.964844 13.066406 104.84375 13.09375 106.515625 13.15625 C 108.1875 13.214844 109.707031 13.277344 111.082031 13.335938 C 112.484375 13.398438 113.78125 13.472656 114.976562 13.566406 L 114.976562 18.25 L 102.488281 18.25 C 101.472656 18.25 100.667969 18.507812 100.070312 19.023438 C 99.503906 19.539062 99.21875 20.34375 99.21875 21.433594 L 99.21875 27.390625 L 112.960938 27.710938 L 112.960938 32.121094 L 99.21875 32.441406 L 99.21875 38.214844 C 99.21875 39.125 99.367188 39.824219 99.667969 40.308594 C 99.996094 40.792969 100.398438 41.128906 100.875 41.308594 C 101.382812 41.492188 101.90625 41.582031 102.441406 41.582031 L 114.976562 41.582031 L 114.976562 46.265625 C 113.664062 46.386719 112.230469 46.496094 110.679688 46.585938 C 109.125 46.644531 107.542969 46.691406 105.933594 46.722656 C 104.351562 46.78125 102.828125 46.828125 101.367188 46.859375 Z M 101.367188 46.859375 "/>
<path style=" stroke:none;fill-rule:nonzero;fill:rgb(32.156864%,36.862746%,44.705883%);fill-opacity:1;" d="M 120.648438 46.628906 L 120.648438 13.066406 L 125.078125 13.066406 L 140.121094 37.035156 L 140.121094 13.066406 L 145.671875 13.066406 L 145.671875 46.628906 L 141.238281 46.628906 L 126.199219 22.660156 L 126.199219 46.628906 Z M 120.648438 46.628906 "/>
<path style=" stroke:none;fill-rule:nonzero;fill:rgb(32.156864%,36.862746%,44.705883%);fill-opacity:1;" d="M 161.257812 46.902344 C 160.453125 46.902344 159.589844 46.875 158.664062 46.8125 C 157.769531 46.78125 156.84375 46.722656 155.886719 46.628906 C 154.964844 46.507812 154.082031 46.402344 153.246094 46.3125 C 152.410156 46.191406 151.664062 46.054688 151.007812 45.902344 L 151.007812 41.492188 C 151.84375 41.550781 152.816406 41.613281 153.917969 41.671875 C 155.050781 41.734375 156.230469 41.78125 157.453125 41.808594 C 158.679688 41.839844 159.855469 41.855469 160.992188 41.855469 C 162.183594 41.855469 163.242188 41.75 164.167969 41.535156 C 165.09375 41.292969 165.808594 40.886719 166.316406 40.308594 C 166.824219 39.734375 167.078125 38.914062 167.078125 37.851562 L 167.078125 36.261719 C 167.078125 35.078125 166.75 34.167969 166.09375 33.53125 C 165.4375 32.894531 164.46875 32.578125 163.183594 32.578125 L 160.09375 32.578125 C 157.082031 32.578125 154.753906 31.910156 153.113281 30.574219 C 151.5 29.242188 150.695312 26.953125 150.695312 23.707031 L 150.695312 21.980469 C 150.695312 18.734375 151.574219 16.398438 153.335938 14.976562 C 155.128906 13.519531 157.679688 12.792969 160.992188 12.792969 C 162.125 12.792969 163.289062 12.851562 164.480469 12.972656 C 165.707031 13.066406 166.871094 13.1875 167.972656 13.335938 C 169.078125 13.488281 170.019531 13.65625 170.792969 13.839844 L 170.792969 18.25 C 169.480469 18.160156 167.972656 18.066406 166.273438 17.976562 C 164.601562 17.886719 163.050781 17.839844 161.617188 17.839844 C 160.484375 17.839844 159.484375 17.960938 158.617188 18.203125 C 157.753906 18.445312 157.097656 18.886719 156.648438 19.523438 C 156.203125 20.128906 155.976562 21.039062 155.976562 22.253906 L 155.976562 23.34375 C 155.976562 24.769531 156.351562 25.769531 157.097656 26.34375 C 157.871094 26.921875 158.976562 27.210938 160.410156 27.210938 L 163.855469 27.210938 C 165.796875 27.210938 167.390625 27.574219 168.644531 28.300781 C 169.898438 29.027344 170.824219 30.03125 171.421875 31.304688 C 172.046875 32.546875 172.359375 33.972656 172.359375 35.578125 L 172.359375 37.714844 C 172.359375 40.203125 171.882812 42.113281 170.929688 43.445312 C 169.972656 44.78125 168.660156 45.691406 166.988281 46.175781 C 165.316406 46.660156 163.410156 46.902344 161.257812 46.902344 Z M 161.257812 46.902344 "/>
<path style=" stroke:none;fill-rule:nonzero;fill:rgb(32.156864%,36.862746%,44.705883%);fill-opacity:1;" d="M 177.683594 46.628906 L 177.683594 13.066406 L 183.191406 13.066406 L 183.191406 46.628906 Z M 177.683594 46.628906 "/>
<path style=" stroke:none;fill-rule:nonzero;fill:rgb(32.156864%,36.862746%,44.705883%);fill-opacity:1;" d="M 189.355469 46.628906 L 189.355469 13.066406 L 201.980469 13.066406 C 205.082031 13.066406 207.378906 13.808594 208.871094 15.292969 C 210.363281 16.777344 211.109375 18.945312 211.109375 21.796875 C 211.109375 23.132812 210.902344 24.3125 210.484375 25.34375 C 210.097656 26.34375 209.558594 27.179688 208.871094 27.847656 C 208.1875 28.484375 207.378906 28.921875 206.457031 29.164062 C 207.140625 29.347656 207.8125 29.636719 208.46875 30.03125 C 209.15625 30.394531 209.78125 30.910156 210.351562 31.574219 C 210.917969 32.242188 211.363281 33.0625 211.691406 34.03125 C 212.019531 34.972656 212.183594 36.078125 212.183594 37.351562 C 212.183594 39.65625 211.796875 41.492188 211.019531 42.855469 C 210.277344 44.191406 209.171875 45.160156 207.710938 45.765625 C 206.277344 46.34375 204.546875 46.628906 202.515625 46.628906 Z M 194.863281 41.582031 L 202.335938 41.582031 C 203.261719 41.582031 204.070312 41.414062 204.753906 41.082031 C 205.441406 40.75 205.964844 40.21875 206.320312 39.488281 C 206.710938 38.730469 206.902344 37.699219 206.902344 36.398438 C 206.902344 35.367188 206.710938 34.503906 206.320312 33.804688 C 205.933594 33.109375 205.394531 32.578125 204.710938 32.210938 C 204.023438 31.820312 203.234375 31.621094 202.335938 31.621094 L 194.863281 31.621094 Z M 194.863281 27.253906 L 202.070312 27.253906 C 203.171875 27.253906 204.070312 26.847656 204.753906 26.027344 C 205.441406 25.179688 205.800781 24.070312 205.828125 22.707031 C 205.859375 20.980469 205.484375 19.78125 204.710938 19.113281 C 203.964844 18.445312 203.039062 18.113281 201.933594 18.113281 L 194.863281 18.113281 Z M 194.863281 27.253906 "/>
<path style=" stroke:none;fill-rule:nonzero;fill:rgb(32.156864%,36.862746%,44.705883%);fill-opacity:1;" d="M 229.246094 46.859375 C 227.425781 46.859375 225.738281 46.707031 224.1875 46.402344 C 222.636719 46.070312 221.292969 45.507812 220.160156 44.71875 C 219.023438 43.902344 218.144531 42.796875 217.519531 41.398438 C 216.921875 39.976562 216.621094 38.15625 216.621094 35.941406 L 216.621094 13.066406 L 222.128906 13.066406 L 222.128906 35.941406 C 222.128906 37.398438 222.410156 38.566406 222.980469 39.445312 C 223.546875 40.292969 224.351562 40.898438 225.394531 41.265625 C 226.46875 41.628906 227.753906 41.808594 229.246094 41.808594 C 230.738281 41.808594 232.007812 41.628906 233.050781 41.265625 C 234.125 40.898438 234.945312 40.292969 235.511719 39.445312 C 236.078125 38.566406 236.363281 37.398438 236.363281 35.941406 L 236.363281 13.066406 L 241.867188 13.066406 L 241.867188 35.941406 C 241.867188 38.15625 241.554688 39.976562 240.929688 41.398438 C 240.332031 42.796875 239.464844 43.902344 238.332031 44.71875 C 237.199219 45.507812 235.855469 46.070312 234.304688 46.402344 C 232.78125 46.707031 231.097656 46.859375 229.246094 46.859375 Z M 229.246094 46.859375 "/>
<path style=" stroke:none;fill-rule:nonzero;fill:rgb(32.156864%,36.862746%,44.705883%);fill-opacity:1;" d="M 254.96875 46.628906 C 253.414062 46.628906 252.074219 46.386719 250.9375 45.902344 C 249.835938 45.417969 249 44.628906 248.433594 43.539062 C 247.867188 42.417969 247.582031 40.945312 247.582031 39.125 L 247.582031 13.066406 L 253.085938 13.066406 L 253.085938 38.214844 C 253.085938 39.066406 253.238281 39.746094 253.535156 40.261719 C 253.832031 40.75 254.222656 41.082031 254.699219 41.265625 C 255.207031 41.445312 255.757812 41.535156 256.355469 41.535156 L 267.320312 41.535156 L 267.320312 46.628906 Z M 254.96875 46.628906 "/>
<path style=" stroke:none;fill-rule:nonzero;fill:rgb(32.156864%,36.862746%,44.705883%);fill-opacity:1;" d="M 278.878906 46.628906 C 277.328125 46.628906 275.984375 46.386719 274.851562 45.902344 C 273.746094 45.417969 272.910156 44.628906 272.34375 43.539062 C 271.777344 42.417969 271.492188 40.945312 271.492188 39.125 L 271.492188 13.066406 L 277 13.066406 L 277 38.214844 C 277 39.066406 277.148438 39.746094 277.445312 40.261719 C 277.746094 40.75 278.132812 41.082031 278.609375 41.265625 C 279.117188 41.445312 279.667969 41.535156 280.265625 41.535156 L 291.234375 41.535156 L 291.234375 46.628906 Z M 278.878906 46.628906 "/>
</g>
</svg>
